<svg width="20" height="20" viewBox="0 0 20 20" fill="none" xmlns="http://www.w3.org/2000/svg">
<g clip-path="url(#clip0_73_633)">
<path d="M10.4166 17.5H4.99998C4.55795 17.5 4.13403 17.3244 3.82147 17.0118C3.50891 16.6992 3.33331 16.2753 3.33331 15.8333V5.83329C3.33331 5.39127 3.50891 4.96734 3.82147 4.65478C4.13403 4.34222 4.55795 4.16663 4.99998 4.16663H15C15.442 4.16663 15.8659 4.34222 16.1785 4.65478C16.4911 4.96734 16.6666 5.39127 16.6666 5.83329V9.99996" stroke="#BD8BFD" stroke-width="1.5" stroke-linecap="round" stroke-linejoin="round"/>
<path d="M13.3333 2.5V5.83333" stroke="#BD8BFD" stroke-width="1.5" stroke-linecap="round" stroke-linejoin="round"/>
<path d="M6.66669 2.5V5.83333" stroke="#BD8BFD" stroke-width="1.5" stroke-linecap="round" stroke-linejoin="round"/>
<path d="M3.33331 9.16663H16.6666" stroke="#BD8BFD" stroke-width="1.5" stroke-linecap="round" stroke-linejoin="round"/>
<path d="M13.3333 15.8334C13.3333 16.4964 13.5967 17.1323 14.0655 17.6011C14.5344 18.07 15.1703 18.3334 15.8333 18.3334C16.4964 18.3334 17.1322 18.07 17.6011 17.6011C18.0699 17.1323 18.3333 16.4964 18.3333 15.8334C18.3333 15.1703 18.0699 14.5344 17.6011 14.0656C17.1322 13.5968 16.4964 13.3334 15.8333 13.3334C15.1703 13.3334 14.5344 13.5968 14.0655 14.0656C13.5967 14.5344 13.3333 15.1703 13.3333 15.8334Z" stroke="#BD8BFD" stroke-width="1.5" stroke-linecap="round" stroke-linejoin="round"/>
<path d="M14.1667 17.5L17.5 14.1666" stroke="#BD8BFD" stroke-width="1.5" stroke-linecap="round" stroke-linejoin="round"/>
</g>
<defs>
<clipPath id="clip0_73_633">
<rect width="20" height="20" fill="white"/>
</clipPath>
</defs>
</svg>
