<svg width="26" height="26" viewBox="0 0 26 26" fill="none" xmlns="http://www.w3.org/2000/svg">
<path d="M21.6667 15.1667L21.6667 21.6667L15.1667 21.6667L15.1667 15.1667L21.6667 15.1667Z" stroke="white" stroke-width="2.2" stroke-linecap="round" stroke-linejoin="round"/>
<path d="M10.8333 4.33333L10.8333 10.8333L4.33333 10.8333L4.33333 4.33333L10.8333 4.33333Z" stroke="white" stroke-width="2.2" stroke-linecap="round" stroke-linejoin="round"/>
<path d="M7.58333 15.1667C6.72138 15.1667 5.89472 15.5091 5.28523 16.1186C4.67574 16.7281 4.33333 17.5547 4.33333 18.4167C4.33333 19.2786 4.67574 20.1053 5.28523 20.7148C5.89472 21.3243 6.72138 21.6667 7.58333 21.6667C8.44528 21.6667 9.27193 21.3243 9.88143 20.7148C10.4909 20.1053 10.8333 19.2786 10.8333 18.4167C10.8333 17.5547 10.4909 16.7281 9.88143 16.1186C9.27193 15.5091 8.44528 15.1667 7.58333 15.1667Z" stroke="white" stroke-width="2.2" stroke-linecap="round" stroke-linejoin="round"/>
<path d="M18.4167 4.33333C17.9899 4.33333 17.5672 4.41739 17.1729 4.58072C16.7786 4.74405 16.4204 4.98344 16.1186 5.28523C15.8168 5.58702 15.5774 5.9453 15.414 6.33961C15.2507 6.73392 15.1667 7.15653 15.1667 7.58333C15.1667 8.01013 15.2507 8.43274 15.414 8.82705C15.5774 9.22136 15.8168 9.57964 16.1186 9.88143C16.4204 10.1832 16.7786 10.4226 17.1729 10.5859C17.5672 10.7493 17.9899 10.8333 18.4167 10.8333C18.8435 10.8333 19.2661 10.7493 19.6604 10.5859C20.0547 10.4226 20.413 10.1832 20.7148 9.88143C21.0165 9.57964 21.2559 9.22136 21.4193 8.82705C21.5826 8.43274 21.6667 8.01013 21.6667 7.58333C21.6667 7.15653 21.5826 6.73392 21.4193 6.33961C21.2559 5.9453 21.0165 5.58702 20.7148 5.28523C20.413 4.98344 20.0547 4.74405 19.6604 4.58072C19.2661 4.41739 18.8435 4.33333 18.4167 4.33333Z" stroke="white" stroke-width="2.2" stroke-linecap="round" stroke-linejoin="round"/>
</svg>
