<svg width="20" height="20" viewBox="0 0 20 20" fill="none" xmlns="http://www.w3.org/2000/svg">
<g clip-path="url(#clip0_185_2484)">
<path d="M7.91669 4.58333C7.91669 5.13587 8.13618 5.66577 8.52688 6.05647C8.91758 6.44717 9.44749 6.66667 10 6.66667C10.5526 6.66667 11.0825 6.44717 11.4732 6.05647C11.8639 5.66577 12.0834 5.13587 12.0834 4.58333C12.0834 4.0308 11.8639 3.50089 11.4732 3.11019C11.0825 2.71949 10.5526 2.5 10 2.5C9.44749 2.5 8.91758 2.71949 8.52688 3.11019C8.13618 3.50089 7.91669 4.0308 7.91669 4.58333Z" stroke="#FDB176" stroke-width="1.5" stroke-linecap="round" stroke-linejoin="round"/>
<path d="M10 17.8066L14.2458 13.56C14.4873 13.3216 14.6793 13.0378 14.8107 12.7249C14.9421 12.412 15.0103 12.0763 15.0114 11.7369C15.0125 11.3976 14.9464 11.0614 14.8171 10.7477C14.6877 10.434 14.4976 10.1489 14.2577 9.90899C14.0177 9.66904 13.7327 9.47892 13.419 9.34957C13.1052 9.22022 12.769 9.15419 12.4297 9.15529C12.0904 9.15639 11.7546 9.22459 11.4417 9.35597C11.1289 9.48734 10.8451 9.67931 10.6067 9.9208L10 10.5266L9.39334 9.9208C9.15495 9.67931 8.87115 9.48734 8.55828 9.35597C8.24541 9.22459 7.90964 9.15639 7.57031 9.15529C7.23097 9.15419 6.89477 9.22022 6.58106 9.34957C6.26734 9.47892 5.98231 9.66904 5.74236 9.90899C5.50241 10.1489 5.31229 10.434 5.18294 10.7477C5.05359 11.0614 4.98756 11.3976 4.98866 11.7369C4.98976 12.0763 5.05796 12.412 5.18934 12.7249C5.32072 13.0378 5.51268 13.3216 5.75418 13.56L10 17.8066Z" stroke="#FDB176" stroke-width="1.5" stroke-linecap="round" stroke-linejoin="round"/>
</g>
<defs>
<clipPath id="clip0_185_2484">
<rect width="20" height="20" fill="white"/>
</clipPath>
</defs>
</svg>
