<svg width="20" height="20" viewBox="0 0 20 20" fill="none" xmlns="http://www.w3.org/2000/svg">
<g clip-path="url(#clip0_106_719)">
<path d="M14.1667 6.66671V4.16671C14.1667 3.94569 14.0789 3.73373 13.9226 3.57745C13.7663 3.42117 13.5544 3.33337 13.3334 3.33337H5.00004C4.55801 3.33337 4.13409 3.50897 3.82153 3.82153C3.50897 4.13409 3.33337 4.55801 3.33337 5.00004M3.33337 5.00004C3.33337 5.44207 3.50897 5.86599 3.82153 6.17855C4.13409 6.49111 4.55801 6.66671 5.00004 6.66671H15C15.2211 6.66671 15.433 6.7545 15.5893 6.91079C15.7456 7.06707 15.8334 7.27903 15.8334 7.50004V10M3.33337 5.00004V15C3.33337 15.4421 3.50897 15.866 3.82153 16.1786C4.13409 16.4911 4.55801 16.6667 5.00004 16.6667H15C15.2211 16.6667 15.433 16.5789 15.5893 16.4226C15.7456 16.2663 15.8334 16.0544 15.8334 15.8334V13.3334" stroke="white" stroke-width="1.5" stroke-linecap="round" stroke-linejoin="round"/>
<path d="M16.6666 10V13.3333H13.3333C12.8913 13.3333 12.4673 13.1577 12.1548 12.8452C11.8422 12.5326 11.6666 12.1087 11.6666 11.6667C11.6666 11.2246 11.8422 10.8007 12.1548 10.4882C12.4673 10.1756 12.8913 10 13.3333 10H16.6666Z" stroke="white" stroke-width="1.5" stroke-linecap="round" stroke-linejoin="round"/>
</g>
<defs>
<clipPath id="clip0_106_719">
<rect width="20" height="20" fill="white"/>
</clipPath>
</defs>
</svg>
