<svg width="441" height="431" viewBox="0 0 441 431" fill="none" xmlns="http://www.w3.org/2000/svg">
<g opacity="0.05">
<path d="M6.14015 110.352C-24.6237 -1.12665 89.3371 -12.4738 171.579 21.1869C219.563 38.4981 251.076 -15.3386 310.519 6.14697C369.962 27.6325 298.702 95.312 389.657 130.047C480.613 164.782 436.209 320.194 356.713 321.984C277.216 323.775 299.06 349.916 219.563 409.717C140.067 469.518 6.14033 386.441 39.4429 298.708C72.7455 210.976 39.4425 231.029 6.14015 110.352Z" stroke="white"/>
<path d="M177.235 144.11C173.686 133.492 190.311 116.363 203.68 123.673C215.922 130.367 228.388 125.852 236.625 128.837C258.307 136.693 250.332 140.852 260.024 150.183C271.819 161.537 277.447 191.27 250.332 191.27C228.03 191.27 234.703 202.101 218.004 206.901C201.304 211.7 182.366 203.531 182.366 182.022C182.366 173.946 183.147 161.794 177.235 144.11Z" stroke="white"/>
<path d="M21.6914 117.697C-6.59842 15.3881 98.5138 3.51529 174.494 34.7805C219.23 51.1265 249.01 1.77364 303.798 21.5773C359.809 41.8238 294.302 103.729 377.87 136.154C461.629 168.764 421.773 312.75 347.039 314.378C272.742 316.006 293.206 340.755 219.419 395.556C145.631 450.357 22.158 374.089 52.4331 292.377C82.7081 211.886 52.5037 229.011 21.6914 117.697Z" stroke="white"/>
<path d="M37.2437 125.043C11.4279 31.9029 107.691 19.5045 177.411 48.3742C218.897 63.755 246.946 18.886 297.079 37.0077C349.657 56.0152 289.903 112.145 366.083 142.262C442.646 172.745 407.339 305.307 337.366 306.772C268.269 308.236 287.354 331.594 219.275 381.395C151.196 431.196 38.1768 361.738 65.4243 286.046C92.6719 212.796 65.566 226.994 37.2437 125.043Z" stroke="white"/>
<path d="M52.7961 126.389C29.4544 42.4183 116.869 29.4943 180.328 55.9684C218.564 70.3841 244.882 29.9988 290.36 46.4386C339.504 64.2072 285.504 114.563 354.297 142.369C423.663 170.728 392.904 291.864 327.693 293.166C263.796 294.468 281.502 316.433 219.132 361.234C156.762 406.035 54.1956 343.387 78.4156 273.716C102.636 207.707 78.6284 218.977 52.7961 126.389Z" stroke="white"/>
<path d="M68.3487 124.736C47.4809 49.9342 126.047 36.4846 183.244 60.5632C218.231 74.0137 242.818 38.1123 283.64 52.8701C329.352 69.3996 281.105 113.981 342.51 139.478C404.68 165.711 378.47 275.421 318.021 276.56C259.323 277.7 275.65 298.274 218.988 338.074C162.327 377.875 70.2146 322.037 91.4071 258.386C112.6 199.619 91.6909 207.961 68.3487 124.736Z" stroke="white"/>
<path d="M83.9009 132.455C65.5072 66.8224 135.225 52.8472 186.161 74.5303C217.898 87.0156 240.753 55.598 276.921 68.6739C319.2 83.9644 276.706 122.771 330.723 145.958C385.697 170.066 364.035 268.351 308.348 269.327C254.849 270.304 269.797 289.486 218.845 324.287C167.892 359.087 86.2332 310.059 104.398 252.428C122.563 200.903 104.753 206.317 83.9009 132.455Z" stroke="white"/>
<path d="M99.4534 140.614C83.5337 84.1509 144.403 69.65 189.077 88.9377C217.566 100.458 238.689 73.524 270.202 84.9179C309.048 98.9695 272.307 132.001 318.937 152.879C366.714 174.861 349.6 261.721 298.675 262.535C250.376 263.349 263.945 281.139 218.701 310.939C173.458 340.74 102.252 298.521 117.39 246.911C132.527 202.627 117.815 205.114 99.4534 140.614Z" stroke="white"/>
<path d="M115.007 138.798C101.561 91.5037 153.581 76.4772 191.995 93.3694C217.234 103.924 236.626 81.4742 263.483 91.1863C298.897 103.999 267.909 131.256 307.151 149.825C347.732 169.681 335.167 245.115 289.004 245.766C245.904 246.418 258.093 262.816 218.559 287.616C179.024 312.416 118.272 277.008 130.382 231.418C142.492 194.375 130.879 193.934 115.007 138.798Z" stroke="white"/>
<path d="M130.561 134.017C119.59 95.8917 162.761 80.3396 194.914 94.8363C216.903 104.426 234.564 86.4597 256.766 94.4899C288.747 106.063 263.512 127.546 295.367 143.805C328.751 161.536 320.734 225.545 279.333 226.033C241.433 226.522 252.243 241.528 218.417 261.328C184.591 281.128 134.293 252.529 143.375 212.96C152.458 183.159 143.943 179.79 130.561 134.017Z" stroke="white"/>
<path d="M146.115 142.288C137.617 113.332 171.94 97.254 197.831 109.355C216.572 117.98 232.501 104.497 250.048 110.845C278.596 121.18 259.114 136.888 283.582 150.838C309.769 166.443 306.301 219.027 269.661 219.352C236.961 219.678 246.392 233.293 218.275 248.092C190.158 262.892 150.313 241.103 156.368 207.554C162.423 184.994 157.007 178.698 146.115 142.288Z" stroke="white"/>
<path d="M161.673 150.637C155.649 130.85 181.123 114.247 200.753 123.953C216.245 131.612 230.442 122.613 243.334 127.28C268.449 136.375 254.72 146.309 271.801 157.949C290.792 171.429 291.872 212.587 259.994 212.75C232.493 212.912 240.545 225.136 218.137 234.935C195.729 244.735 166.337 229.755 169.365 202.227C172.392 186.908 170.075 177.684 161.673 150.637Z" stroke="white"/>
</g>
</svg>
